<svg xmlns="http://www.w3.org/2000/svg" width="468" height="166" fill="none" viewBox="0 0 468 166">
  <g clip-path="url(#a)">
    <path fill="#CA4E79" d="M62.087 119.4V52.987h8.042v29.575h35.411V52.987h8.043V119.4h-8.043V89.696H70.13V119.4h-8.043Zm47.963 0V52.987h22.44c5.189 0 9.447.887 12.777 2.66 3.329 1.75 5.793 4.161 7.393 7.231 1.6 3.07 2.4 6.561 2.4 10.474 0 3.913-.8 7.383-2.4 10.41-1.6 3.026-4.053 5.404-7.361 7.134-3.308 1.708-7.534 2.562-12.679 2.562h-18.16v-7.264h17.9c3.546 0 6.399-.52 8.561-1.557 2.184-1.037 3.762-2.508 4.735-4.41.994-1.924 1.491-4.216 1.491-6.875s-.497-4.983-1.491-6.972c-.995-1.989-2.584-3.524-4.767-4.604-2.184-1.103-5.07-1.654-8.658-1.654h-14.139V119.4h-8.042Zm31.26-29.834 16.344 29.834h-9.339l-16.084-29.834h9.079Z"/>
    <path fill="#25316D" d="M257.164 69.59c-.389-3.285-1.967-5.836-4.734-7.652-2.768-1.816-6.162-2.724-10.183-2.724-2.94 0-5.512.475-7.718 1.427-2.183.95-3.891 2.259-5.123 3.923-1.211 1.665-1.816 3.557-1.816 5.675 0 1.773.421 3.297 1.265 4.572a11.213 11.213 0 0 0 3.307 3.146A23.725 23.725 0 0 0 236.378 80c1.47.519 2.821.94 4.053 1.265l6.745 1.816c1.73.454 3.654 1.08 5.773 1.88 2.14.8 4.183 1.892 6.128 3.276 1.968 1.362 3.589 3.113 4.865 5.253 1.275 2.14 1.913 4.767 1.913 7.88 0 3.589-.941 6.831-2.821 9.728-1.86 2.897-4.584 5.2-8.172 6.908-3.567 1.707-7.902 2.561-13.004 2.561-4.756 0-8.874-.767-12.355-2.302-3.459-1.535-6.183-3.675-8.172-6.421-1.967-2.745-3.08-5.934-3.34-9.566h8.302c.216 2.508 1.059 4.583 2.529 6.226 1.492 1.622 3.373 2.832 5.643 3.632 2.291.778 4.756 1.167 7.393 1.167 3.07 0 5.826-.497 8.269-1.491 2.443-1.016 4.378-2.422 5.805-4.216 1.427-1.816 2.14-3.934 2.14-6.356 0-2.205-.616-4-1.848-5.383-1.233-1.383-2.854-2.507-4.864-3.372a51.181 51.181 0 0 0-6.518-2.27l-8.172-2.335c-5.189-1.492-9.296-3.621-12.323-6.388-3.027-2.767-4.54-6.389-4.54-10.864 0-3.718 1.005-6.96 3.016-9.728 2.032-2.789 4.756-4.95 8.172-6.486 3.437-1.556 7.274-2.334 11.512-2.334 4.28 0 8.085.767 11.414 2.302 3.33 1.513 5.967 3.589 7.913 6.226 1.967 2.638 3.005 5.632 3.113 8.983h-7.783Zm28.918 38.136V64.921h7.264v42.805h-7.264Zm-17.771-17.77v-7.264h42.805v7.263h-42.805Zm66.55 17.77V64.921h7.264v42.805h-7.264Zm-17.77-17.77v-7.264h42.805v7.263h-42.805Z"/>
    <path fill="#ED7B0E" d="M158.758 85.435 185.78 113.2l27.022-27.765v34.243h-54.044V85.435Zm25.94 0-25.94-31.39h54.045l-28.105 31.39Z"/>
  </g>
  <defs>
    <clipPath id="a">
      <path fill="#fff" d="M0 0h402.366v102.732H0z" transform="translate(34.244 31.39)"/>
    </clipPath>
  </defs>
</svg>
